Patient4_TMGait_0pt7_02_left_38_EMG.mot
version=1
nRows=40
nColumns=33
inDegrees=no
endheader
time	1LAddLong	2LGlutMax	3LGlutMed	4LIliopsoas	5LSemiMemb	6LBicFemLong	7LRecFem	8LVastMed	9LVastLat	10LGasMed	11LTibAnt	12lTibPost	13LPeroneusLong	14LSol	15LExtDigLong	16LFlexDigLong	17RAddLong	18RGlutMax	19RGlutMed	20RIliopsoas	21RSemiMemb	22RBicFemLong	23RRecFem	24RVastMed	25RVastLat	26RGasMed	27RTibAnt	28RTibPost	29RPeroneusLong	30RSol	31RExtDigLong	32RFlexDigLong
43.48	-0.00473	1.832	-0.003967	0.00824	0.003815	0.036316	0.096283	0.010529	0.22369	-0.004578	-0.022583	0.012665	0.04715	-0.1033	-0.24262	-0.026855	0.006866	-0.12039	-0.55267	-0.15747	-0.11719	-0.32272	-0.24582	0.037689	-0.52109	-0.019226	0.072937	0.000153	1.9572	-0.28458	0.001373	-0.003815
43.481	0.006409	1.8559	0.00061	0.066833	-0.001678	0.033875	0.083618	0.005798	0.22705	0.027161	0.014343	0.007019	0.000763	-0.29236	-0.45761	-0.018463	0.013428	-0.042419	1.019	-0.012207	-0.14252	-0.17548	-0.19867	0.021973	-0.58441	0.017853	-0.008087	-0.000153	2.4986	-0.3244	-0.005951	-0.00473
43.482	0.000763	1.7656	-0.00946	0.079651	0.021515	0.024719	0.040588	0.007019	0.23086	-0.016479	-0.011902	0.008698	-0.00061	-0.17197	-0.27268	-0.014343	0.006409	-0.03479	1.154	0.11459	-0.16556	-0.072021	-0.36255	0.084534	-0.29465	0.020142	-0.30868	-0.005188	0.15381	-0.059814	-0.001526	-0.005798
43.483	-0.002441	1.5642	0.007477	0.042877	0.030365	0.02121	0.0177	0.00885	0.23086	-0.011902	0.041962	0.008087	-0.041809	-0.083313	-0.002594	0.002441	0.021515	-0.063171	1.086	-0.068359	-0.17288	-0.028534	-0.26154	0.17746	0.05127	0.027313	-0.439	-0.009766	-0.92453	-0.16373	-0.004272	0.003967
43.484	0.007019	1.2595	0.024109	-0.033112	0.04425	0.066223	-0.01297	0.007935	0.22537	0.01358	0.039673	0.014191	-0.078125	-0.027313	0.26871	-0.003052	0.010834	-0.14801	0.53925	-0.066986	-0.19455	0.050964	-0.29511	0.18753	0.18051	-0.063477	-0.19623	-0.011902	-0.83527	0.028229	-0.004883	-0.004272
43.485	0.016479	1.042	0.039978	-0.020447	0.031586	0.037384	-0.013885	0.013885	0.23132	-0.005798	-0.040741	0.007629	-0.000458	0.01358	0.030975	0.005646	0.005646	-0.11963	-0.37155	0.12589	-0.1622	0.27283	-0.23438	0.19073	0.19882	-0.33279	0.37491	-0.013733	-2.4513	-0.040894	-0.005341	-0.018463
43.486	0.009003	0.77011	0.011444	-0.010529	0.025787	-0.010681	-0.048981	0.014343	0.22583	0.003204	-0.046692	0.006866	0.012817	-0.065308	0.13016	0.019684	0.013123	-0.13397	-1.2543	0.224	-0.13519	0.12222	-0.030212	0.18356	0.14603	-0.44739	0.69244	-0.016327	-1.2354	-0.044861	0.000916	-0.019226
43.487	0.019226	0.56992	-0.021515	-0.027771	0.014801	0.016022	-0.080109	0.012054	0.23346	0.023499	0.12009	0.007629	-0.01297	-0.19012	0.53162	0.017242	0.011597	-0.21515	-0.8696	0.14725	-0.072479	-0.025024	0.12909	0.15976	0.063629	-0.44006	0.35767	-0.037537	1.4882	-0.11154	-0.001068	-0.00824
43.488	0.00473	0.401	-0.02533	-0.005493	-0.005188	0.024414	-0.025635	0.021057	0.24689	0.001984	0.21668	0.002136	-0.000305	-0.14725	-0.20432	0.018005	0.013733	-0.2092	-0.35202	0.082855	0.010529	-0.040131	0.12955	0.14755	-0.006256	-0.20294	0.11047	-0.065918	1.8684	-0.032806	-0.00061	0.003204
43.489	0.010071	0.21515	0.058289	-0.000763	-0.00824	0.005646	0.017548	0.009155	0.25238	0.023956	0.14328	0.005493	-0.057373	-0.043945	-0.072632	0.024567	0.012054	-0.3157	-0.32272	0.11658	0.053711	0.033569	0.14175	0.10681	-0.019379	-0.14328	0.015106	-0.089264	0.8403	0.027618	-0.002136	0.00946
43.49	0.009613	0.062256	-0.010986	0.023193	0.017548	0.007629	-0.021362	0.015717	0.25375	0.024872	-0.072632	0.004272	-0.024719	0.10208	0.039368	-0.016022	0.005646	-0.30136	-0.11658	0.00885	0.002747	0.10056	0.11276	0.048981	-0.02533	0.059662	-0.081482	-0.018768	-1.3283	0.016937	-0.003662	0.015869
43.491	0.005798	-0.079498	-0.008545	0.007477	0.03418	0.009155	-0.0354	0.021973	0.24506	0.006256	-0.21957	0.002441	0.042877	0.10315	0.78674	-0.027008	-0.020447	-0.36667	-0.64224	-0.024414	-0.02243	0.27145	0.0177	-0.04837	-0.032806	0.15182	-0.24109	-0.1236	-1.4857	0.14694	0.001526	0.005646
43.492	0.007782	-0.18967	-0.023193	0.001831	0.011749	0.008392	0.026093	0.011749	0.24887	-0.046234	-0.098114	0.005188	0.018463	0.13382	0.11978	-0.032196	-0.029907	-0.35629	-0.63721	-0.06424	0.005188	0.11169	0.026398	-0.070343	-0.067291	0.19775	-0.11261	0.010529	-1.725	0.11704	-0.002747	0
43.493	0.003662	-0.27863	-0.065308	-0.008545	-0.027313	-0.014801	0.033112	0.011292	0.23987	-0.083618	0.054779	0.002594	0.10895	0.13412	0.011597	-0.014801	-0.035706	-0.34012	-0.017395	-0.16403	0.016022	-0.31464	-0.000763	-0.043488	-0.1091	0.14847	0.006714	0.065308	-0.074768	0.2713	-0.004578	0.00351
43.494	0.014648	-0.36529	-0.023651	-0.005951	-0.042419	-0.024261	0.051727	0.000458	0.24658	-0.07309	0.17548	0.000763	0.11566	0.004883	-0.6749	-0.005493	-0.005951	-0.36057	1.1636	-0.27054	0.030823	0.11978	0.043182	-0.056	-0.085449	-0.046387	0.13245	-0.026245	0.34012	0.29236	-0.001373	-0.006104
43.495	0.012817	-0.42068	0.084381	0.023193	0.036011	-0.042877	0.044098	0.040436	0.24139	-0.033264	0.055542	-0.000153	0.07843	-0.06958	-0.72922	-0.003204	0.013123	-0.23804	1.2515	-0.13336	-0.004578	0.54443	0.16876	-0.023041	-0.091858	0.16968	0.15656	0.005646	0.24231	0.066071	-0.001678	-0.010681
43.496	0.008698	-0.50736	0.11414	0.016479	0.075989	-0.05722	0.030365	0.028839	0.25391	0.011444	-0.015411	-0.000153	0.026245	-0.080109	-0.42435	-0.008392	0.023346	-0.15182	0.25131	0.000153	-0.080261	0.57342	0.30456	0.006714	-0.062866	0.13992	0.11017	-0.057068	0.23682	0.068054	-0.004883	-0.022278
43.497	0.002441	-0.55527	0.031128	0.01236	0.04776	-0.033112	0.037079	0.005188	0.23315	0.02655	-0.00885	0.00061	-0.016632	-0.005951	-0.33264	-0.008698	0.029602	-0.23224	-0.33371	0.041809	-0.11078	0.38879	0.23773	-0.040894	-0.011749	0.112	-0.029602	0.26382	-0.1207	0.30762	-0.003662	-0.021515
43.498	-0.002899	-0.62378	0.014801	-0.00412	0.033264	-0.023041	0.010681	0.012512	0.24185	0.027618	-0.014648	-0.002747	-0.018616	-0.030365	-0.14023	-0.000458	0.038147	-0.28702	-0.56534	0.084839	-0.11185	0.271	0.32272	-0.16007	0.028229	0.13245	0.037537	0.13138	-0.87616	0.46341	-0.004883	-0.02533
43.499	-0.005341	-0.62546	0.005951	0.000763	0.043335	0.007782	-0.015564	0.00473	0.23773	0.010834	0.043488	-0.000305	-0.02182	-0.076904	-0.047302	0.014191	0.033875	-0.24674	0.25635	-0.028992	-0.13184	0.25345	0.401	-0.091095	0.007935	0.18448	0.092926	0.049438	-1.1598	0.41214	-0.002899	-0.027924
43.5	-0.000458	-0.62576	-0.006256	0.023193	0.021057	0.045929	-0.047607	0.009155	0.23193	-0.000458	0.060577	0.00946	-0.031738	-0.074615	0.082245	0.010986	0.023651	-0.20966	0.16983	0.098419	-0.1535	0.24277	0.28748	-0.083466	-0.098267	0.14618	0.055847	0.003967	-0.17883	-0.08316	-0.003052	-0.003662
43.501	0.001221	-0.62637	-0.027466	0.016022	-0.018921	0.030518	-0.041046	0.005646	0.23468	-0.012665	0.027008	0.006409	-0.000916	-0.050812	0.10788	0.013733	0.010834	-0.25253	0.15228	0.13382	-0.1622	0.53421	-0.22675	-0.014801	-0.11841	0.10712	-0.13397	-0.025787	2.0459	-0.36865	-0.001984	0.000763
43.502	0.005188	-0.62592	-0.022583	-0.010681	0.00473	-0.064697	0.000916	0.001984	0.23285	-0.017853	0.019684	0.006409	-0.000153	-0.009308	0.16281	0.012512	-0.032501	-0.2124	0.010376	0.15213	-0.12756	0.35767	-0.51727	-0.007324	-0.12192	0.019989	-0.41672	-0.009918	1.8451	-0.39505	-0.003662	0.005493
43.503	0.014191	-0.62729	-0.013123	-0.020905	0.009308	-0.11627	0.014496	0.004883	0.22598	-0.009766	0.033722	0.006714	-0.042725	-0.003052	0.29831	0.009308	-0.009155	-0.18204	-0.41885	0.15106	-0.18814	-0.027771	-0.25955	-0.05249	-0.16541	-0.003052	-0.10925	-0.010681	-0.42328	-0.38238	-0.002899	-0.000458
43.504	0.019836	-0.58563	-0.019989	-0.008545	0.014954	-0.10117	0.036011	0.001678	0.20233	-0.017395	0.055237	0.004425	-0.018463	-0.02121	0.21301	0.013885	0.020294	-0.080261	-0.40619	0.12116	-0.16541	-0.39825	0.029144	-0.20813	-0.17456	-0.001068	0.37979	-0.012054	-0.4509	-0.42389	-0.002899	0.005188
43.505	0.029449	-0.57007	-0.02655	0.009613	0.000763	-0.044861	0.001221	0.006866	0.19302	-0.039215	0.019836	0.008087	0.005035	0.024261	0.093079	-0.009155	-0.009308	-0.088196	0.60471	0.068359	-0.023499	-0.56	-0.12146	-0.27237	-0.14618	-0.001068	0.60349	-0.017242	0.057526	-0.32166	0	-0.000153
43.506	-0.028534	-0.57373	-0.020599	0.007782	0.009155	-0.038605	-0.011139	0.00885	0.18066	-0.056152	0.007019	-0.001678	0.057526	0.019379	-0.027771	-0.001678	-0.036163	-0.15121	0.54779	0.015259	-0.001526	-0.52948	-0.055847	-0.27756	-0.17975	-0.017242	0.86456	-0.019836	0.56015	-0.32318	-0.000153	-0.005188
43.507	0.06546	-0.5722	-0.02182	-0.006104	0.005798	-0.039673	0.021973	0.007477	0.17639	-0.041199	0.00061	0.006714	0.042419	0.001068	0.049591	-0.000916	-0.038452	-0.17319	0.18066	-0.16159	-0.081635	-0.6456	0.097351	-0.19486	-0.22964	0.001373	0.71564	-0.016479	-0.033569	-0.37094	-0.003204	0.000153
43.508	0.030212	-0.54398	-0.010681	0.003662	0.008392	-0.069122	0.026855	0.008698	0.15717	-0.017853	0.019379	0.003052	-0.007172	-0.02243	0.32471	0.007629	-0.056	-0.071564	0.33676	-0.26779	-0.028381	-0.44205	0.069122	0	-0.19531	-0.028992	0.16922	-0.023041	-0.22537	-0.23377	-0.000916	-0.005341
43.509	-0.009918	-0.51895	-0.005035	-0.009918	0.005493	-0.059509	0.03418	0.007019	0.15884	0.016174	0.025787	0.005035	-0.045929	-0.013123	0.22049	0.002747	-0.043335	-0.089569	0.88654	-0.112	0.10864	-0.35996	-0.13077	-0.049896	-0.15411	-0.12634	-1.0316	-0.03479	-0.19928	-0.10391	-0.001831	-0.000763
43.51	0.012817	-0.49698	0.003204	-0.016479	-0.008545	-0.014038	0.063934	0.01236	0.14877	0.006104	-0.13718	0.007324	-0.019531	-0.009003	0.041504	-0.00412	-0.030365	-0.072327	-0.047607	0.041504	0.13443	-0.39383	-0.33188	-0.05127	-0.1152	-0.15015	-0.67886	-0.041351	-0.080109	-0.062256	-0.001678	0.002594
43.511	0.005951	-0.46646	-0.003662	-0.007019	-0.007019	-0.031433	0.059357	0.005951	0.14908	-0.00473	-0.002594	0.004272	0.001221	0.026703	-0.14008	0.005035	0.007935	-0.11627	-0.98343	0.23712	0.04425	-0.43839	-0.18158	0.035095	-0.067902	-0.16388	-0.1889	-0.036163	-1.2775	-0.012665	-0.002747	0.004272
43.512	0.015259	-0.47989	-0.004578	-0.018616	0.003204	0.013275	0.062714	0.008698	0.15091	-0.030975	0.25925	0.007019	0.014191	0.066528	-0.21454	-0.003662	0.00351	-0.0914	-0.9671	0.18051	0.036011	-0.18906	-0.42557	0.064697	0.10651	-0.15976	0.10513	-0.040588	-1.3757	-0.025024	-0.00061	-0.002747
43.513	0.012665	-0.48386	-0.029144	-0.022888	0.010223	-0.018921	0.1152	0.009308	0.1384	-0.013733	0.21423	0.011139	0.020294	0.062103	-0.18478	0.000305	-0.013123	-0.14862	-1.1511	0.32623	0.036774	0.51621	-0.4393	0.044861	0.24216	-0.021057	0.001221	-0.054779	2.61	0.19058	-0.003052	-0.006561
43.514	0.011292	-0.45624	-0.032043	-0.018768	-0.00061	-0.030212	0.15579	0.015106	0.13184	0.003815	0.021667	0.00885	0.007935	0.023499	-0.031433	-0.004883	-0.008698	-0.13916	-0.64285	0.43304	0.029297	0.32745	-0.21744	0.029602	0.26733	0.1413	-0.014343	-0.075836	2.5038	0.31586	-0.000458	-0.006409
43.515	0.01236	-0.46661	-0.019836	0.019379	-0.007782	-0.027313	0.23529	0.010529	0.11673	-0.027161	-0.16144	0.012054	0.027161	-0.01358	-0.004425	0.006866	-0.01297	-0.31158	-0.13031	0.35431	0.068512	0.091095	-0.063019	0.12589	0.22415	0.17868	-0.090179	-0.11948	0.77515	0.23377	-0.003662	-0.007019
43.516	0.015411	-0.44067	-0.007172	0.040436	-0.001526	-0.054169	0.22568	0.013885	0.12589	-0.06073	0.20905	0.017395	0.076599	0.001526	0.21652	0.013275	-0.020142	-0.25803	-0.046997	0.13458	0.067749	0.58624	-0.052643	0.14633	0.15182	0.10529	-0.23163	-0.027466	0.88638	0.063477	-0.002747	-0.006561
43.517	0.006866	-0.40619	0.02182	0.052643	-0.003815	-0.042419	0.14816	0.016174	0.11093	-0.083313	-0.092316	0.013275	0.11368	0.053711	0.55054	0.005798	-0.032501	-0.16022	0.82855	-0.16602	0.038452	1.0974	-0.067139	0.17487	0.092163	0.061035	-0.16632	0.093231	-1.6838	-0.21027	-0.005035	0.001526
43.518	0.007782	-0.36835	-0.016632	0.039825	0.003052	-0.031738	0.072632	0.019379	0.10742	-0.072327	-0.11032	0.015106	0.052185	0.093079	0.15015	0.027161	-0.028687	-0.089874	0.74295	-0.36697	0.018921	0.99197	-0.071106	0.11917	0.10056	-0.066071	-0.19806	0.13306	-1.8042	-0.065155	-0.001831	-0.002441
43.519	0.003967	-0.38544	-0.063171	0.013733	-0.006104	-0.036926	0.031891	0.017853	0.099487	-0.040588	0.15228	0.008087	-0.03479	0.13626	0.36179	0.004425	-0.02121	-0.15579	-0.24612	-0.34851	-0.025635	1.0321	-0.18341	0.098877	0.14465	0.02594	-0.098877	0.085602	-1.3152	0.00351	-0.003052	-0.014954
